# xmcd CD database file
#
# Track frame offsets:
#	150
#	19416
#	52082
#	78096
#	95532
#	118840
#	136595
#	163941
#	183771
#
# Disc length: 2631 seconds
#
# Revision: 0
# Processed by: cddbd v1.5.2PL0 Copyright (c) Steve Scherf et al.
# Submitted via: CDex 1.51
#
DISCID=700a4509
DTITLE=Lester Quitzau - The Same Light
DYEAR=2009
DGENRE=Blues
TTITLE0=In Your Arms Again
TTITLE1=The Only Cure
TTITLE2=These Blues
TTITLE3=Find My Way Home
TTITLE4=Ferris Wheel
TTITLE5=Let It Shine
TTITLE6=Shape Shfter
TTITLE7=To My Old Brown Earth
TTITLE8=* frogs *
EXTD=YEAR: 2009
EXTT0=
EXTT1=
EXTT2=
EXTT3=
EXTT4=
EXTT5=
EXTT6=
EXTT7=
EXTT8=
PLAYORDER=
